<svg id="Layer_1" data-name="Layer 1" xmlns="http://www.w3.org/2000/svg" viewBox="0 0 82.87 79.97"><path d="M40.29,30.1l-37.7,10L35.21,78.26,79.8,54.17ZM28.58,35.48c-1.61,1.9-2.32,3.62-2.08,5.13a3.27,3.27,0,0,0,2.15,2.56c1.81.67,2.74,1.64,2.85,2.25,0,.11.07.39-.41.8-1.29,1.08-1.93,1.63-7.26.46A6.69,6.69,0,0,0,17.66,48a7.29,7.29,0,0,0-2.19,3.76L6.54,41.33ZM17.44,54.08a5.68,5.68,0,0,1,1.67-4.42,4.59,4.59,0,0,1,4.25-.83c5.51,1.2,7,.84,9.15-.93A3,3,0,0,0,33.67,45c-.28-1.57-1.86-3-4.25-3.93a1.09,1.09,0,0,1-.74-.85c-.09-.51,0-2.41,4.25-5.93l7-1.86L75.39,54.06,35.73,75.48Z"/><path d="M49.07,12.91a5.42,5.42,0,1,0-5.41-5.42A5.42,5.42,0,0,0,49.07,12.91Z"/><rect x="66.36" y="29.15" width="2" height="4.34" transform="translate(-6.42 40.01) rotate(-31.66)"/><rect x="57.24" y="14.37" width="2" height="4.34" transform="translate(-0.02 33.03) rotate(-31.66)"/><rect x="75.47" y="43.93" width="2" height="4.34" transform="translate(-12.82 47) rotate(-31.66)"/><rect x="70.91" y="36.54" width="2" height="4.34" transform="translate(-9.62 43.5) rotate(-31.66)"/><rect x="61.8" y="21.76" width="2" height="4.34" transform="translate(-3.22 36.53) rotate(-31.66)"/><rect x="36.42" y="11.58" width="4.34" height="2" transform="translate(0.07 25.37) rotate(-36.42)"/><rect x="8.46" y="32.19" width="4.34" height="2" transform="translate(-17.63 12.8) rotate(-36.42)"/><rect x="15.45" y="27.04" width="4.34" height="2" transform="translate(-13.2 15.94) rotate(-36.42)"/><rect x="29.43" y="16.73" width="4.34" height="2" transform="translate(-4.35 22.22) rotate(-36.42)"/><rect x="22.44" y="21.88" width="4.34" height="2" transform="translate(-8.78 19.08) rotate(-36.42)"/><path d="M56.53,45.6c-3.48-2.36-11-3.93-14.43-3.53-2.43.29-3,1.66-3.08,2.23a3.09,3.09,0,0,0,1.74,3.16c.27.16.56.31.85.46a7.58,7.58,0,0,1,1.71,1s-.06.23-.64.7a4.67,4.67,0,0,1-1.43.16c-1.58.06-4,.14-5.31,2.46s.37,3.57,1.37,4.36,1.71,1.42,1.63,2.59c-.12,1.79,1.29,3.22,3.87,3.91a13.42,13.42,0,0,0,3.41.43c2.73,0,5.55-.78,6.53-2.79a2.7,2.7,0,0,0,.19-2.33c-.52-1.24-2-1.72-3.26-2.15a5.66,5.66,0,0,1-1.86-.84,16.74,16.74,0,0,1,4.09-.08,36.77,36.77,0,0,0,6.77-.13C61,54.92,61.77,53.83,62,53,62.69,49.86,57.16,46,56.53,45.6Zm1.84,7.49a35.69,35.69,0,0,1-6.36.1c-3.38-.15-6.29-.29-6.42,2.06-.11,2,1.92,2.66,3.4,3.15.67.22,1.79.6,1.92.91,0,0,0,.21-.13.51-.67,1.38-4.48,2-7.4,1.21-1.12-.3-2.3-.89-2.24-1.64.16-2.38-1.42-3.63-2.46-4.46s-1.14-1-.84-1.54c.68-1.17,1.82-1.3,3.49-1.36a4.46,4.46,0,0,0,2.72-.64,3.2,3.2,0,0,0,1.46-2.6c-.14-1.4-1.6-2.16-2.89-2.83l-.78-.41c-.52-.3-.69-.67-.66-.81s.34-.38,1.17-.48h0a7.59,7.59,0,0,1,1,0c3.34,0,9.25,1.39,11.94,3.21s4.71,4.26,4.53,5.06C59.78,52.68,59.31,53,58.37,53.09Z"/></svg>