<svg id="Layer_1" data-name="Layer 1" xmlns="http://www.w3.org/2000/svg" viewBox="0 0 203.27 41.56"><defs><style>.cls-1{fill:#fff;}</style></defs><rect x="-0.17" y="-0.23" width="204.02" height="42.26"/><path class="cls-1" d="M26.55,8.26H17.42V35.58H12.14V8.26H3V3.79H26.55Z"/><path class="cls-1" d="M36.28,36.11a11.25,11.25,0,0,1-8.39-3.18,11.5,11.5,0,0,1-3.14-8.44q0-5.71,3.27-8.93a12.05,12.05,0,0,1,8.82-3.22c3.54,0,6.31,1,8.29,3.13s3,5,3,8.67a11.92,11.92,0,0,1-3.2,8.7A11.52,11.52,0,0,1,36.28,36.11Zm.25-19.66a5.89,5.89,0,0,0-4.77,2.1A8.82,8.82,0,0,0,30,24.36,8.32,8.32,0,0,0,31.78,30,6,6,0,0,0,36.53,32a5.62,5.62,0,0,0,4.66-2,8.9,8.9,0,0,0,1.63-5.74,9.05,9.05,0,0,0-1.63-5.79A5.63,5.63,0,0,0,36.53,16.45Z"/><path class="cls-1" d="M66.5,17.78A4.23,4.23,0,0,0,63.82,17,4.6,4.6,0,0,0,60,19.11a9.26,9.26,0,0,0-1.53,5.6V35.58H53.33V12.88h5.14v4.67h.09a8,8,0,0,1,2.32-3.73,5.2,5.2,0,0,1,3.49-1.34,4.36,4.36,0,0,1,2.13.42Z"/><path class="cls-1" d="M86,34.54a12.79,12.79,0,0,1-6.45,1.57A10.92,10.92,0,0,1,71.38,33a11.2,11.2,0,0,1-3.11-8.19,12.33,12.33,0,0,1,3.34-9,11.92,11.92,0,0,1,8.92-3.41A13.1,13.1,0,0,1,86,13.43v4.79A8.31,8.31,0,0,0,81,16.45a7,7,0,0,0-5.34,2.2,8.07,8.07,0,0,0-2.08,5.78,7.67,7.67,0,0,0,2,5.56,7,7,0,0,0,5.26,2,8.27,8.27,0,0,0,5.24-2Z"/><path class="cls-1" d="M111.26,35.58h-5.14V23.16q0-6.73-4.5-6.74a4.72,4.72,0,0,0-3.82,1.95,7.8,7.8,0,0,0-1.55,5V35.58H91.09V2h5.16V16.64h.09a8.13,8.13,0,0,1,7.36-4.3q7.56,0,7.56,9.25Z"/><path class="cls-1" d="M145.26,33.45a22.91,22.91,0,0,1-11.58,2.68q-7.67,0-12.09-4.24t-4.42-11.7A16.32,16.32,0,0,1,122,8q4.83-4.73,12.86-4.73a26.12,26.12,0,0,1,8.91,1.4v6.72a17.68,17.68,0,0,0-9-2.13,9.66,9.66,0,0,0-7.26,2.89,10.64,10.64,0,0,0-2.81,7.73c0,3.27.84,5.79,2.52,7.58a8.87,8.87,0,0,0,6.8,2.68,9.46,9.46,0,0,0,4.08-.73V23.18h-6.37V17.47h13.53Z"/><path class="cls-1" d="M171.15,26.22H156.34c.24,3.3,2.31,5,6.23,5a12.22,12.22,0,0,0,6.59-1.78v5.06A17.37,17.37,0,0,1,161,36.13c-3.66,0-6.51-1-8.53-3.05s-3-4.86-3-8.5,1.09-6.75,3.28-8.95a10.92,10.92,0,0,1,8.07-3.31q5,0,7.68,2.95a11.36,11.36,0,0,1,2.72,8Zm-6.5-4.3q0-4.87-3.94-4.88a3.77,3.77,0,0,0-2.92,1.4,6.27,6.27,0,0,0-1.49,3.48Z"/><path class="cls-1" d="M186.14,36.13q-5.69,0-8.93-3.18A11.55,11.55,0,0,1,174,24.31q0-5.62,3.36-8.81t9.12-3.18q5.66,0,8.87,3.18a11.33,11.33,0,0,1,3.21,8.42,12,12,0,0,1-3.31,8.93Q191.9,36.14,186.14,36.13Zm.17-18.44a4.67,4.67,0,0,0-3.85,1.7,7.52,7.52,0,0,0-1.38,4.84q0,6.54,5.28,6.54,5,0,5-6.72Q191.39,17.69,186.31,17.69Z"/></svg>