<svg id="Layer_1" data-name="Layer 1" xmlns="http://www.w3.org/2000/svg" viewBox="0 0 286.55 80.86"><defs><style>.cls-1{fill:#fff;}</style></defs><rect class="cls-1" width="286.75" height="81.05"/><path d="M110.63,24.63h-9.14V51.94H96.22V24.63H87.1V20.15h23.53Z"/><path d="M120.36,52.47A11.25,11.25,0,0,1,112,49.29a11.49,11.49,0,0,1-3.14-8.43c0-3.82,1.09-6.79,3.27-8.94a12,12,0,0,1,8.81-3.21q5.32,0,8.29,3.12t3,8.67a11.88,11.88,0,0,1-3.2,8.7A11.5,11.5,0,0,1,120.36,52.47Zm.24-19.66a5.83,5.83,0,0,0-4.76,2.11,8.79,8.79,0,0,0-1.76,5.8,8.26,8.26,0,0,0,1.78,5.62,5.94,5.94,0,0,0,4.74,2,5.67,5.67,0,0,0,4.67-2,8.93,8.93,0,0,0,1.63-5.75,9,9,0,0,0-1.63-5.78A5.63,5.63,0,0,0,120.6,32.81Z"/><path d="M150.58,34.14a4.27,4.27,0,0,0-2.69-.73,4.57,4.57,0,0,0-3.81,2.06,9.2,9.2,0,0,0-1.53,5.61V51.94h-5.14V29.24h5.14v4.68h.09A7.86,7.86,0,0,1,145,30.18a5.23,5.23,0,0,1,3.49-1.34,4.36,4.36,0,0,1,2.13.42Z"/><path d="M170.06,50.9a12.68,12.68,0,0,1-6.45,1.57,10.92,10.92,0,0,1-8.16-3.16,11.16,11.16,0,0,1-3.1-8.19,12.29,12.29,0,0,1,3.34-9,11.9,11.9,0,0,1,8.92-3.4,13.06,13.06,0,0,1,5.47,1.08v4.79A8.28,8.28,0,0,0,165,32.81,7,7,0,0,0,159.69,35a8.05,8.05,0,0,0-2.09,5.77,7.7,7.7,0,0,0,2,5.56,7,7,0,0,0,5.27,2,8.19,8.19,0,0,0,5.23-2Z"/><path d="M195.34,51.94h-5.15V39.53c0-4.5-1.5-6.74-4.5-6.74a4.69,4.69,0,0,0-3.81,2,7.73,7.73,0,0,0-1.55,5V51.94h-5.17V18.33h5.17V33h.09a8.1,8.1,0,0,1,7.36-4.3q7.56,0,7.56,9.24Z"/><path d="M229.33,49.81a22.85,22.85,0,0,1-11.57,2.69q-7.68,0-12.09-4.25t-4.43-11.69a16.31,16.31,0,0,1,4.84-12.22q4.83-4.72,12.85-4.72A26.23,26.23,0,0,1,227.85,21v6.72a17.73,17.73,0,0,0-9-2.13,9.69,9.69,0,0,0-7.27,2.9,10.66,10.66,0,0,0-2.8,7.72q0,4.91,2.52,7.59a8.88,8.88,0,0,0,6.79,2.68,9.55,9.55,0,0,0,4.08-.73V39.55h-6.36V33.83h13.52Z"/><path d="M255.23,42.59H240.42q.35,4.94,6.23,4.94a12.18,12.18,0,0,0,6.58-1.77v5.05a17.35,17.35,0,0,1-8.18,1.69c-3.67,0-6.51-1-8.54-3s-3-4.87-3-8.5,1.09-6.76,3.28-9a10.93,10.93,0,0,1,8.07-3.3q5,0,7.68,2.94a11.38,11.38,0,0,1,2.72,8Zm-6.5-4.3c0-3.26-1.32-4.88-3.95-4.88a3.76,3.76,0,0,0-2.91,1.39,6.42,6.42,0,0,0-1.5,3.49Z"/><path d="M270.21,52.5q-5.67,0-8.92-3.19A11.5,11.5,0,0,1,258,40.68q0-5.62,3.37-8.81t9.11-3.18q5.66,0,8.87,3.18a11.31,11.31,0,0,1,3.22,8.41q0,5.65-3.32,8.93T270.21,52.5Zm.18-18.45a4.67,4.67,0,0,0-3.86,1.71,7.57,7.57,0,0,0-1.37,4.83q0,6.54,5.27,6.54,5,0,5-6.72C275.47,36.17,273.77,34.05,270.39,34.05Z"/><path d="M39.56,30.19l-37.69,10L34.48,78.36l44.6-24.1ZM5.81,41.42l22.05-5.85c-1.62,1.9-2.33,3.62-2.08,5.13a3.26,3.26,0,0,0,2.14,2.56c1.81.68,2.75,1.64,2.85,2.25,0,.11.07.4-.41.8-1.28,1.08-1.92,1.63-7.26.46a6.69,6.69,0,0,0-6.17,1.33,7.39,7.39,0,0,0-2.19,3.77Zm10.9,12.75a5.69,5.69,0,0,1,1.68-4.42,4.6,4.6,0,0,1,4.24-.83c5.51,1.21,7.05.85,9.15-.93a3,3,0,0,0,1.16-2.85c-.27-1.57-1.86-3-4.24-3.94a1.08,1.08,0,0,1-.75-.85c-.08-.51,0-2.41,4.25-5.93l7-1.86L74.66,54.15,35,75.58Z"/><path d="M48.35,13a5.42,5.42,0,1,0-5.42-5.42A5.42,5.42,0,0,0,48.35,13Z"/><rect x="74.74" y="44.03" width="2" height="4.34" transform="translate(-12.98 46.63) rotate(-31.66)"/><rect x="56.52" y="14.47" width="2" height="4.34" transform="translate(-0.17 32.66) rotate(-31.66)"/><rect x="65.63" y="29.25" width="2" height="4.34" transform="translate(-6.57 39.64) rotate(-31.66)"/><rect x="70.19" y="36.64" width="2" height="4.34" transform="translate(-9.78 43.13) rotate(-31.66)"/><rect x="61.07" y="21.86" width="2" height="4.34" transform="translate(-3.37 36.15) rotate(-31.66)"/><rect x="35.69" y="11.67" width="4.34" height="2" transform="translate(-0.13 24.96) rotate(-36.42)"/><rect x="7.74" y="32.28" width="4.34" height="2" transform="translate(-17.82 12.38) rotate(-36.42)"/><rect x="14.73" y="27.13" width="4.34" height="2" transform="translate(-13.4 15.53) rotate(-36.42)"/><rect x="21.72" y="21.98" width="4.34" height="2" transform="translate(-8.98 18.67) rotate(-36.42)"/><rect x="28.7" y="16.82" width="4.34" height="2" transform="translate(-4.55 21.81) rotate(-36.42)"/><path d="M55.8,45.69c-3.48-2.36-11-3.93-14.43-3.52-2.42.28-2.95,1.65-3.07,2.23A3.08,3.08,0,0,0,40,47.56l.84.45a7.83,7.83,0,0,1,1.72,1.05s-.06.24-.64.7a4.94,4.94,0,0,1-1.43.17c-1.59,0-4,.14-5.32,2.45s.38,3.58,1.38,4.37,1.71,1.41,1.63,2.58c-.13,1.79,1.28,3.22,3.87,3.92a13.38,13.38,0,0,0,3.41.42c2.72,0,5.54-.78,6.53-2.79a2.72,2.72,0,0,0,.19-2.32c-.52-1.25-2-1.73-3.26-2.15a6.06,6.06,0,0,1-1.87-.84,16.19,16.19,0,0,1,4.09-.09A37.77,37.77,0,0,0,58,55.36c2.36-.34,3.09-1.44,3.29-2.29C62,50,56.44,46.12,55.8,45.69Zm1.84,7.49a35.67,35.67,0,0,1-6.36.1c-3.37-.15-6.29-.29-6.42,2.06-.11,2,1.92,2.66,3.4,3.15.67.23,1.8.6,1.93.92,0,0,0,.2-.14.5-.67,1.38-4.47,2-7.39,1.21-1.12-.3-2.3-.89-2.25-1.64C40.58,57.1,39,55.85,38,55s-1.14-1-.84-1.54c.67-1.17,1.82-1.3,3.49-1.36a4.45,4.45,0,0,0,2.71-.64,3.2,3.2,0,0,0,1.47-2.59c-.14-1.4-1.6-2.16-2.89-2.83l-.78-.42c-.53-.29-.69-.67-.66-.81s.34-.38,1.17-.48c.3,0,.64-.05,1-.05,3.35,0,9.25,1.39,11.94,3.21s4.72,4.26,4.53,5.06C59.05,52.78,58.59,53,57.64,53.18Z"/></svg>